<svg version="1.1" id="Layer_1" xmlns="http://www.w3.org/2000/svg" xmlns:xlink="http://www.w3.org/1999/xlink" x="0px" y="0px"
	 width="100%" viewBox="0 0 512 512" enable-background="new 0 0 512 512" xml:space="preserve">
<path fill="#FFFFFF" opacity="1.000000" stroke="none" 
	d="
M1.000004,476.000000 
	C1.000000,330.309265 1.000000,184.618515 1.325908,38.758476 
	C2.028364,38.263695 2.628260,38.005413 2.749337,37.603054 
	C8.054018,19.974495 19.443665,8.402745 37.035183,2.901887 
	C37.508724,2.753811 37.685066,1.655297 38.000000,1.000000 
	C183.690750,1.000000 329.381500,1.000000 475.241516,1.325882 
	C475.736267,2.028327 475.994568,2.628243 476.396912,2.749326 
	C494.025482,8.053997 505.597260,19.443624 511.098114,37.035164 
	C511.246185,37.508717 512.344727,37.685062 513.000000,38.000000 
	C513.000000,183.690750 513.000000,329.381500 512.674072,475.241516 
	C511.971649,475.736237 511.371765,475.994537 511.250671,476.396912 
	C505.945984,494.025513 494.556366,505.597351 476.964691,511.098083 
	C476.491150,511.246155 476.314880,512.344666 476.000000,513.000000 
	C330.309265,513.000000 184.618515,513.000000 38.758469,512.674072 
	C38.263683,511.971649 38.005413,511.371735 37.603046,511.250671 
	C19.974485,505.945953 8.402703,494.556335 2.901878,476.964752 
	C2.753799,476.491241 1.655300,476.314911 1.000004,476.000000 
M154.009750,310.491272 
	C151.254745,317.259094 148.574646,324.059235 145.680222,330.766907 
	C145.115311,332.076050 143.718201,333.026031 142.704941,334.141693 
	C141.852234,333.048187 140.702179,332.077637 140.191635,330.842682 
	C133.085648,313.654175 126.068108,296.429108 119.027267,279.213654 
	C100.671097,234.331299 82.328712,189.443253 63.889851,144.594894 
	C63.311001,143.186981 61.758263,141.186951 60.616367,141.157883 
	C50.170418,140.891754 39.714901,141.001404 29.237146,141.001404 
	C29.237146,218.810562 29.237146,296.185547 29.237146,373.548279 
	C37.990620,373.548279 46.405739,373.548279 55.295601,373.548279 
	C55.295601,314.557251 55.295601,255.851089 55.295601,197.144958 
	C55.942844,196.939850 56.590092,196.734756 57.237335,196.529663 
	C81.758827,255.540909 105.807129,314.752625 130.224976,373.696411 
	C138.883926,373.696411 147.201141,373.696411 155.674576,373.696411 
	C167.133224,345.840698 178.563858,318.046814 189.999481,290.255005 
	C202.258453,260.462219 214.512100,230.667236 226.813080,200.891815 
	C227.437164,199.381180 228.487335,198.046585 229.339142,196.630035 
	C229.823044,196.841446 230.306946,197.052872 230.790848,197.264282 
	C230.790848,255.985123 230.790848,314.705963 230.790848,373.624817 
	C239.705978,373.624817 248.122406,373.624817 256.747131,373.624817 
	C256.747131,296.031555 256.747131,218.648514 256.747131,141.131897 
	C245.519562,141.131897 234.556946,141.131897 223.360443,141.131897 
	C200.328293,197.335068 177.291809,253.548782 154.009750,310.491272 
M313.309326,263.499817 
	C313.309326,300.118225 313.309326,336.736603 313.309326,373.597717 
	C322.906036,373.597717 331.983643,373.597717 341.641113,373.597717 
	C341.641113,371.660400 341.641113,369.871277 341.641113,368.082153 
	C341.641144,346.083374 341.606476,324.084442 341.704102,302.086090 
	C341.712341,300.230530 342.053680,297.899109 343.178101,296.601379 
	C352.118927,286.282440 361.286682,276.160126 370.567780,265.772675 
	C371.719574,267.208649 372.785889,268.461151 373.769501,269.775543 
	C398.707703,303.100464 423.627960,336.438843 448.598114,369.739807 
	C449.740753,371.263672 451.284607,373.587189 452.700195,373.630707 
	C463.390381,373.959229 474.095245,373.810089 485.709442,373.810089 
	C452.712769,330.666779 420.390686,288.405487 387.958679,246.000488 
	C420.452026,211.080093 452.718201,176.403839 485.668579,140.992264 
	C473.996033,140.992264 463.388977,140.815964 452.796722,141.132690 
	C450.525177,141.200592 447.686523,142.487473 446.155548,144.166809 
	C413.150970,180.369766 380.301239,216.713898 347.388824,253.001007 
	C346.078735,254.445435 344.446259,255.597473 342.963959,256.885742 
	C342.517029,256.641541 342.070099,256.397369 341.623169,256.153168 
	C341.623169,217.826874 341.623169,179.500565 341.623169,141.294098 
	C331.813721,141.294098 322.724426,141.294098 313.309326,141.294098 
	C313.309326,181.896591 313.309326,222.198181 313.309326,263.499817 
z"/>
<path fill="#000000" opacity="1.000000" stroke="none" 
	d="
M37.531342,1.000000 
	C37.685066,1.655297 37.508724,2.753811 37.035183,2.901887 
	C19.443665,8.402745 8.054018,19.974495 2.749337,37.603054 
	C2.628260,38.005413 2.028364,38.263695 1.325908,38.294590 
	C1.000000,25.740049 1.000000,13.480098 1.000000,1.000000 
	C13.020000,1.000000 25.041342,1.000000 37.531342,1.000000 
z"/>
<path fill="#000000" opacity="1.000000" stroke="none" 
	d="
M513.000000,37.531342 
	C512.344727,37.685062 511.246185,37.508717 511.098114,37.035164 
	C505.597260,19.443624 494.025482,8.053997 476.396912,2.749326 
	C475.994568,2.628243 475.736267,2.028327 475.705383,1.325882 
	C488.259949,1.000000 500.519897,1.000000 513.000000,1.000000 
	C513.000000,13.020000 513.000000,25.041342 513.000000,37.531342 
z"/>
<path fill="#000000" opacity="1.000000" stroke="none" 
	d="
M1.000004,476.468658 
	C1.655300,476.314911 2.753799,476.491241 2.901878,476.964752 
	C8.402703,494.556335 19.974485,505.945953 37.603046,511.250671 
	C38.005413,511.371735 38.263683,511.971649 38.294586,512.674072 
	C25.740049,513.000000 13.480098,513.000000 1.000000,513.000000 
	C1.000000,500.980011 1.000000,488.958649 1.000004,476.468658 
z"/>
<path fill="#000000" opacity="1.000000" stroke="none" 
	d="
M476.468628,513.000000 
	C476.314880,512.344666 476.491150,511.246155 476.964691,511.098083 
	C494.556366,505.597351 505.945984,494.025513 511.250671,476.396912 
	C511.371765,475.994537 511.971649,475.736237 512.674072,475.705383 
	C513.000000,488.259949 513.000000,500.519897 513.000000,513.000000 
	C500.980011,513.000000 488.958649,513.000000 476.468628,513.000000 
z"/>
<path fill="#010101" opacity="1.000000" stroke="none" 
	d="
M154.132538,310.126892 
	C177.291809,253.548782 200.328293,197.335068 223.360443,141.131897 
	C234.556946,141.131897 245.519562,141.131897 256.747131,141.131897 
	C256.747131,218.648514 256.747131,296.031555 256.747131,373.624817 
	C248.122406,373.624817 239.705978,373.624817 230.790848,373.624817 
	C230.790848,314.705963 230.790848,255.985123 230.790848,197.264282 
	C230.306946,197.052872 229.823044,196.841446 229.339142,196.630035 
	C228.487335,198.046585 227.437164,199.381180 226.813080,200.891815 
	C214.512100,230.667236 202.258453,260.462219 189.999481,290.255005 
	C178.563858,318.046814 167.133224,345.840698 155.674576,373.696411 
	C147.201141,373.696411 138.883926,373.696411 130.224976,373.696411 
	C105.807129,314.752625 81.758827,255.540909 57.237335,196.529663 
	C56.590092,196.734756 55.942844,196.939850 55.295601,197.144958 
	C55.295601,255.851089 55.295601,314.557251 55.295601,373.548279 
	C46.405739,373.548279 37.990620,373.548279 29.237146,373.548279 
	C29.237146,296.185547 29.237146,218.810562 29.237146,141.001404 
	C39.714901,141.001404 50.170418,140.891754 60.616367,141.157883 
	C61.758263,141.186951 63.311001,143.186981 63.889851,144.594894 
	C82.328712,189.443253 100.671097,234.331299 119.027267,279.213654 
	C126.068108,296.429108 133.085648,313.654175 140.191635,330.842682 
	C140.702179,332.077637 141.852234,333.048187 142.704941,334.141693 
	C143.718201,333.026031 145.115311,332.076050 145.680222,330.766907 
	C148.574646,324.059235 151.254745,317.259094 154.132538,310.126892 
z"/>
<path fill="#040404" opacity="1.000000" stroke="none" 
	d="
M313.309326,262.999786 
	C313.309326,222.198181 313.309326,181.896591 313.309326,141.294098 
	C322.724426,141.294098 331.813721,141.294098 341.623169,141.294098 
	C341.623169,179.500565 341.623169,217.826874 341.623169,256.153168 
	C342.070099,256.397369 342.517029,256.641541 342.963959,256.885742 
	C344.446259,255.597473 346.078735,254.445435 347.388824,253.001007 
	C380.301239,216.713898 413.150970,180.369766 446.155548,144.166809 
	C447.686523,142.487473 450.525177,141.200592 452.796722,141.132690 
	C463.388977,140.815964 473.996033,140.992264 485.668579,140.992264 
	C452.718201,176.403839 420.452026,211.080093 387.958679,246.000488 
	C420.390686,288.405487 452.712769,330.666779 485.709442,373.810089 
	C474.095245,373.810089 463.390381,373.959229 452.700195,373.630707 
	C451.284607,373.587189 449.740753,371.263672 448.598114,369.739807 
	C423.627960,336.438843 398.707703,303.100464 373.769501,269.775543 
	C372.785889,268.461151 371.719574,267.208649 370.567780,265.772675 
	C361.286682,276.160126 352.118927,286.282440 343.178101,296.601379 
	C342.053680,297.899109 341.712341,300.230530 341.704102,302.086090 
	C341.606476,324.084442 341.641144,346.083374 341.641113,368.082153 
	C341.641113,369.871277 341.641113,371.660400 341.641113,373.597717 
	C331.983643,373.597717 322.906036,373.597717 313.309326,373.597717 
	C313.309326,336.736603 313.309326,300.118225 313.309326,262.999786 
z"/>
</svg>